HIERARCHY
ROOT joint_Root
{
	OFFSET 0.0 0.0 0.0
	CHANNELS 6 Xposition Yposition Zposition Zrotation Xrotation Yrotation 
	JOINT Hips
	{
		OFFSET 4.5925 91.4895 -427.239
		CHANNELS 6 Xposition Yposition Zposition Zrotation Xrotation Yrotation 
		JOINT Spine
		{
			OFFSET 15.7357 0.0 0.0
			CHANNELS 6 Xposition Yposition Zposition Zrotation Xrotation Yrotation 
			JOINT Chest
			{
				OFFSET 8.98455 -0.406207 0.0
				CHANNELS 6 Xposition Yposition Zposition Zrotation Xrotation Yrotation 
				JOINT Neck
				{
					OFFSET 16.3773 0.0 0.0
					CHANNELS 6 Xposition Yposition Zposition Zrotation Xrotation Yrotation 
					JOINT Head
					{
						OFFSET 6.45672 0.0 0.0
						CHANNELS 6 Xposition Yposition Zposition Zrotation Xrotation Yrotation 
						End Site
						{
							OFFSET 0.0 0.0 0.0
						}
					}
				}
				JOINT Shoulder_L
				{
					OFFSET 12.9942 -0.242716 4.98039
					CHANNELS 6 Xposition Yposition Zposition Zrotation Xrotation Yrotation 
					JOINT UpperArm_L
					{
						OFFSET 5.34809 0.0 0.0
						CHANNELS 6 Xposition Yposition Zposition Zrotation Xrotation Yrotation 
						JOINT LowerArm_L
						{
							OFFSET 24.3286 1.87007e-05 0.0
							CHANNELS 6 Xposition Yposition Zposition Zrotation Xrotation Yrotation 
							JOINT Hand_L
							{
								OFFSET 22.2916 0.0 0.0
								CHANNELS 6 Xposition Yposition Zposition Zrotation Xrotation Yrotation 
								End Site
								{
									OFFSET 0.0 0.0 0.0
								}
							}
						}
					}
				}
				JOINT Shoulder_R
				{
					OFFSET 12.9945 -0.242716 -4.98039
					CHANNELS 6 Xposition Yposition Zposition Zrotation Xrotation Yrotation 
					JOINT UpperArm_R
					{
						OFFSET -5.34813 0.0 0.0
						CHANNELS 6 Xposition Yposition Zposition Zrotation Xrotation Yrotation 
						JOINT LowerArm_R
						{
							OFFSET -24.3289 0.000322201 0.0
							CHANNELS 6 Xposition Yposition Zposition Zrotation Xrotation Yrotation 
							JOINT Hand_R
							{
								OFFSET -22.2915 -0.000108084 0.0
								CHANNELS 6 Xposition Yposition Zposition Zrotation Xrotation Yrotation 
								End Site
								{
									OFFSET 0.0 0.0 0.0
								}
							}
						}
					}
				}
			}
		}
		JOINT UpperLeg_L
		{
			OFFSET -2.19248 -6.46944 0.0
			CHANNELS 6 Xposition Yposition Zposition Zrotation Xrotation Yrotation 
			JOINT LowerLeg_L
			{
				OFFSET 39.0811 0.0 -1.23785e-05
				CHANNELS 6 Xposition Yposition Zposition Zrotation Xrotation Yrotation 
				JOINT Foot_L
				{
					OFFSET 40.9854 0.0 -1.26872e-05
					CHANNELS 6 Xposition Yposition Zposition Zrotation Xrotation Yrotation 
					JOINT Toes_L
					{
						OFFSET 11.7543 0.0 0.0
						CHANNELS 6 Xposition Yposition Zposition Zrotation Xrotation Yrotation 
						End Site
						{
							OFFSET 0.0 0.0 0.0
						}
					}
				}
			}
		}
		JOINT UpperLeg_R
		{
			OFFSET -2.19251 6.46944 0.0
			CHANNELS 6 Xposition Yposition Zposition Zrotation Xrotation Yrotation 
			JOINT LowerLeg_R
			{
				OFFSET -39.0811 -0.00228153 -0.0401928
				CHANNELS 6 Xposition Yposition Zposition Zrotation Xrotation Yrotation 
				JOINT Foot_R
				{
					OFFSET -40.9854 0.0 0.0
					CHANNELS 6 Xposition Yposition Zposition Zrotation Xrotation Yrotation 
					JOINT Toes_R
					{
						OFFSET -11.7543 0.0 0.0
						CHANNELS 6 Xposition Yposition Zposition Zrotation Xrotation Yrotation 
						End Site
						{
							OFFSET 0.0 0.0 0.0
						}
					}
				}
			}
		}
	}
}
MOTION
Frames:	9
Frame Time:	0.0333333
0.000000 0.000000 0.000000 0.000000 0.000000 -0.000000 -1.827010 82.100400 -1.348890 88.449400 -0.580142 11.889600 15.735700 0.000005 -0.000001 86.956000 80.281400 -86.957200 8.984550 -0.406207 -0.000000 11.645100 -1.023670 0.102108 16.377300 -0.000001 -0.000001 -4.395630 -2.996400 1.232000 6.456720 -0.000001 -0.000000 -1.768580 -1.974570 3.123000 12.994200 -0.242716 4.980390 -90.807700 3.266020 -76.100900 5.348090 -0.000007 -0.000001 -67.283900 17.557300 -20.057000 24.328600 0.000019 0.000005 6.695690 21.541000 -17.731100 22.291600 -0.000001 0.000005 8.061050 5.380360 -2.309640 12.994500 -0.242716 -4.980390 89.037300 6.801970 -81.924500 -5.348130 -0.000001 -0.000004 -66.811500 28.459200 -13.692400 -24.328900 0.000322 -0.000009 -1.987930 -6.473760 -17.102200 -22.291500 -0.000108 -0.000004 12.771600 5.510800 -6.972390 -2.192480 -6.469440 -0.000000 -171.025000 -14.100900 -15.380500 39.081100 -0.000007 -0.000012 -0.315963 0.162311 62.811300 40.985400 -0.000006 -0.000013 3.326580 10.280400 -85.214800 11.754300 -0.000000 0.000003 -0.000413 -0.003395 -16.702600 -2.192510 6.469440 -0.000001 176.097000 18.822000 165.783000 -39.081100 -0.002282 -0.040193 0.107836 -0.054598 62.448200 -40.985400 0.000008 0.000006 8.358610 6.495240 -86.119500 -11.754300 -0.000006 -0.000006 -0.685796 -0.846982 -16.575200
0.000000 0.000000 0.000000 0.000000 0.000000 -0.000000 -2.023440 83.112900 -0.691503 88.590800 0.451826 12.170500 15.735700 0.000005 -0.000001 86.087500 80.909700 -86.205100 8.984550 -0.406207 -0.000000 10.372600 -1.234830 -0.122934 16.377300 -0.000001 -0.000001 -2.564670 -3.348370 1.340260 6.456720 -0.000001 -0.000000 0.128833 -2.353780 3.238140 12.994200 -0.242716 4.980390 -90.540700 2.053280 -75.243300 5.348090 -0.000007 -0.000001 -62.603500 8.486520 -25.144300 24.328600 0.000019 0.000005 6.203020 23.040700 -15.519900 22.291600 -0.000001 0.000005 8.202530 5.361690 -1.731430 12.994500 -0.242716 -4.980390 89.015000 5.866050 -80.450300 -5.348130 -0.000001 -0.000004 -61.320900 22.088000 -15.462100 -24.328900 0.000322 -0.000009 -1.181840 -4.791330 -13.861700 -22.291500 -0.000108 -0.000004 9.728780 5.496180 -6.380200 -2.192480 -6.469440 -0.000000 -171.066000 -13.255300 -13.273200 39.081100 -0.000007 -0.000012 -0.311070 0.181239 59.774500 40.985400 -0.000006 -0.000013 3.055290 10.660700 -84.092100 11.754300 -0.000000 0.000003 -0.000348 -0.002942 -16.686600 -2.192510 6.469440 -0.000001 175.678000 19.417800 168.262000 -39.081100 -0.002282 -0.040193 0.099394 -0.056751 59.460200 -40.985400 0.000008 0.000006 8.074900 6.366760 -85.182900 -11.754300 -0.000006 -0.000006 -0.680665 -0.840101 -16.626600
0.000000 0.000000 0.000000 0.000000 0.000000 -0.000000 -2.202150 85.159700 0.013724 88.652900 1.208440 11.765300 15.735700 0.000005 -0.000001 84.586400 81.959500 -84.824900 8.984550 -0.406207 -0.000000 8.242200 -1.511290 -0.367712 16.377300 -0.000001 -0.000001 0.240824 -3.691640 1.575260 6.456720 -0.000001 -0.000000 2.093600 -2.445400 3.289480 12.994200 -0.242716 4.980390 -90.195100 0.676794 -73.920200 5.348090 -0.000007 -0.000001 -56.164800 -1.184110 -31.995300 24.328600 0.000019 0.000005 5.377030 23.239400 -13.416700 22.291600 -0.000001 0.000005 10.008000 5.333780 -0.896307 12.994500 -0.242716 -4.980390 89.136600 4.270720 -78.559300 -5.348130 -0.000001 -0.000004 -54.273900 12.156900 -18.576000 -24.328900 0.000322 -0.000009 -1.202970 -5.840960 -11.649300 -22.291500 -0.000108 -0.000004 10.406400 5.473760 -5.511510 -2.192480 -6.469440 -0.000000 -171.371000 -12.216300 -10.186500 39.081100 -0.000007 -0.000012 -0.286881 0.212904 53.420500 40.985400 -0.000006 -0.000013 2.248250 10.563000 -81.290600 11.754300 -0.000000 0.000003 -0.000293 -0.002552 -16.672700 -2.192510 6.469440 -0.000001 175.855000 19.248800 171.504000 -39.081100 -0.002282 -0.040193 0.079016 -0.056754 53.169900 -40.985400 0.000008 0.000006 7.400660 6.017340 -82.324000 -11.754300 -0.000006 -0.000006 -0.625284 -0.769281 -16.860900
0.000000 0.000000 0.000000 0.000000 0.000000 -0.000000 -2.270810 87.481500 0.808060 88.825300 1.570440 11.200100 15.735700 0.000005 -0.000001 82.603100 83.212000 -83.020900 8.984550 -0.406207 -0.000000 5.692920 -1.735950 -0.748266 16.377300 -0.000001 -0.000001 4.022650 -3.767760 1.939270 6.456720 -0.000001 -0.000000 4.499890 -2.629600 3.367660 12.994200 -0.242716 4.980390 -89.721700 -0.891834 -72.668500 5.348090 -0.000007 -0.000001 -50.202400 -12.344300 -40.445800 24.328600 0.000019 0.000005 4.418510 23.640500 -10.906900 22.291600 -0.000001 0.000005 11.157800 5.294680 0.220704 12.994500 -0.242716 -4.980390 89.370200 2.658830 -76.669000 -5.348130 -0.000001 -0.000004 -47.156700 -2.494930 -23.833000 -24.328900 0.000322 -0.000009 -1.108190 -6.882940 -9.160940 -22.291500 -0.000108 -0.000004 9.804680 5.441040 -4.322350 -2.192480 -6.469440 -0.000000 -171.912000 -11.288400 -6.184160 39.081100 -0.000007 -0.000012 -0.243930 0.242298 45.193000 40.985400 -0.000006 -0.000013 1.247740 10.053800 -77.641800 11.754300 -0.000000 0.000003 -0.000202 -0.001870 -16.648100 -2.192510 6.469440 -0.000001 175.516000 20.025800 175.526000 -39.081100 -0.002282 -0.040193 0.055713 -0.052109 45.186700 -40.985400 0.000008 0.000006 7.189760 7.049330 -78.632400 -11.754300 -0.000006 -0.000006 -0.493341 -0.606308 -17.259800
0.000000 0.000000 0.000000 0.000000 0.000000 -0.000000 -2.241390 89.311900 1.373520 88.895800 1.750400 9.565850 15.735700 0.000005 -0.000001 78.880500 84.751800 -79.287700 8.984550 -0.406207 -0.000000 2.527770 -2.004010 -0.769420 16.377300 -0.000001 -0.000001 7.347250 -3.674610 1.767770 6.456720 -0.000001 -0.000000 6.723050 -2.532200 3.463710 12.994200 -0.242716 4.980390 -89.090000 -2.807430 -72.032800 5.348090 -0.000007 -0.000001 -44.983900 -23.688800 -48.464800 24.328600 0.000019 0.000005 3.849040 20.719600 -10.767000 22.291600 -0.000001 0.000005 12.650600 5.266680 0.987849 12.994500 -0.242716 -4.980390 89.783600 0.831586 -75.411100 -5.348130 -0.000001 -0.000004 -39.935400 -17.817100 -30.986300 -24.328900 0.000322 -0.000009 -1.326600 -9.810120 -7.733940 -22.291500 -0.000108 -0.000004 11.174200 5.395530 -2.792880 -2.192480 -6.469440 -0.000000 -172.483000 -11.047500 -3.750270 39.081100 -0.000007 -0.000012 -0.207602 0.269077 37.651800 40.985400 -0.000006 -0.000013 0.562234 9.773050 -74.176800 11.754300 -0.000000 0.000003 -0.000142 -0.001388 -16.630400 -2.192510 6.469440 -0.000001 174.900000 23.021400 178.137000 -39.081100 -0.002282 -0.040193 0.037239 -0.043641 37.884200 -40.985400 0.000008 0.000006 7.315000 10.386000 -75.216600 -11.754300 -0.000006 -0.000006 -0.455733 -0.561774 -17.634300
0.000000 0.000000 0.000000 0.000000 0.000000 -0.000000 -2.139740 90.466200 1.751170 88.797200 1.401040 7.868040 15.735700 0.000005 -0.000001 75.828100 85.919800 -76.049900 8.984550 -0.406207 -0.000000 0.142637 -1.982630 -0.440890 16.377300 -0.000001 -0.000001 8.765590 -3.215780 1.603960 6.456720 -0.000001 -0.000000 7.838470 -2.402060 3.253820 12.994200 -0.242716 4.980390 -88.302200 -5.222780 -71.963400 5.348090 -0.000007 -0.000001 -39.856900 -35.036000 -53.779900 24.328600 0.000019 0.000005 3.649380 13.210100 -15.594600 22.291600 -0.000001 0.000005 13.493100 5.286330 0.452316 12.994500 -0.242716 -4.980390 90.495900 -1.926840 -75.562700 -5.348130 -0.000001 -0.000004 -33.629600 -32.682400 -36.504100 -24.328900 0.000322 -0.000009 -2.722200 -13.635400 -11.398600 -22.291500 -0.000108 -0.000004 14.733700 5.400150 -2.941970 -2.192480 -6.469440 -0.000000 -172.681000 -11.795600 -2.396350 39.081100 -0.000007 -0.000012 -0.167119 0.266189 32.121700 40.985400 -0.000006 -0.000013 0.245848 10.011300 -71.646700 11.754300 -0.000000 0.000003 -0.000120 -0.001202 -16.623500 -2.192510 6.469440 -0.000001 174.551000 26.050400 179.703000 -39.081100 -0.002282 -0.040193 0.023391 -0.031824 32.269000 -40.985400 0.000008 0.000006 7.315320 14.223400 -72.798200 -11.754300 -0.000006 -0.000006 -0.228211 -0.294390 -17.859400
0.000000 0.000000 0.000000 0.000000 0.000000 -0.000000 -1.972220 91.097900 1.972830 88.896400 0.366943 6.326430 15.735700 0.000005 -0.000001 76.942900 86.662600 -77.065600 8.984550 -0.406207 -0.000000 -1.265470 -1.497990 -0.261762 16.377300 -0.000001 -0.000001 8.659630 -2.597060 1.447490 6.456720 -0.000001 -0.000000 7.316500 -2.362070 3.369390 12.994200 -0.242716 4.980390 -87.511900 -7.485910 -71.554800 5.348090 -0.000007 -0.000001 -32.791900 -46.370500 -55.601600 24.328600 0.000019 0.000005 3.347810 7.484920 -24.183400 22.291600 -0.000001 0.000005 14.337000 5.333500 -0.887670 12.994500 -0.242716 -4.980390 91.325700 -5.170890 -75.599200 -5.348130 -0.000001 -0.000004 -27.689100 -45.655900 -39.364800 -24.328900 0.000322 -0.000009 -6.398980 -16.646600 -21.376300 -22.291500 -0.000108 -0.000004 18.173600 5.490530 -6.154730 -2.192480 -6.469440 -0.000000 -173.004000 -13.205800 -1.793490 39.081100 -0.000007 -0.000012 -0.146088 0.268752 28.527700 40.985400 -0.000006 -0.000013 0.110500 10.236500 -70.078000 11.754300 -0.000000 0.000003 -0.000125 -0.001245 -16.625100 -2.192510 6.469440 -0.000001 174.772000 26.736200 -179.978000 -39.081100 -0.002282 -0.040193 0.014694 -0.020887 28.601700 -40.985400 0.000008 0.000006 7.191680 16.061800 -71.485100 -11.754300 -0.000006 -0.000006 -0.017566 -0.045541 -17.683600
0.000000 0.000000 0.000000 0.000000 0.000000 -0.000000 -1.830910 91.415800 2.035500 89.096400 -0.503144 5.204380 15.735700 0.000005 -0.000001 79.456000 86.999600 -79.518000 8.984550 -0.406207 -0.000000 -1.867350 -1.092590 -0.141838 16.377300 -0.000001 -0.000001 7.928440 -2.277840 1.544230 6.456720 -0.000001 -0.000000 6.381350 -2.360100 2.853320 12.994200 -0.242716 4.980390 -86.671000 -9.060290 -69.726800 5.348090 -0.000007 -0.000001 -24.018100 -56.264200 -54.456800 24.328600 0.000019 0.000005 6.395600 9.603900 -33.894300 22.291600 -0.000001 0.000005 20.499600 5.367530 -1.907450 12.994500 -0.242716 -4.980390 92.208300 -7.836940 -74.209300 -5.348130 -0.000001 -0.000004 -18.918900 -55.210700 -39.287700 -24.328900 0.000322 -0.000009 -7.407620 -11.198200 -33.799800 -22.291500 -0.000108 -0.000004 23.838600 5.563290 -9.345510 -2.192480 -6.469440 -0.000000 -173.489000 -14.056600 -1.713440 39.081100 -0.000007 -0.000012 -0.129652 0.260398 26.468900 40.985400 -0.000006 -0.000013 -0.011918 10.057900 -69.154800 11.754300 -0.000000 0.000003 -0.000118 -0.001189 -16.623000 -2.192510 6.469440 -0.000001 175.306000 25.574100 179.623000 -39.081100 -0.002282 -0.040193 0.011459 -0.016270 26.608700 -40.985400 0.000008 0.000006 7.008000 15.808200 -70.786900 -11.754300 -0.000006 -0.000006 -0.001509 -0.022395 -17.483800
0.000000 0.000000 0.000000 0.000000 0.000000 -0.000000 -1.713390 91.593000 2.126650 89.246100 -0.827333 4.365930 15.735700 0.000005 -0.000001 78.471900 87.371400 -78.384100 8.984550 -0.406207 -0.000000 -2.614180 -1.058240 0.151464 16.377300 -0.000001 -0.000001 7.785470 -2.191330 1.673640 6.456720 -0.000001 -0.000000 6.708950 -2.059640 1.630600 12.994200 -0.242716 4.980390 -85.596200 -9.975280 -66.031200 5.348090 -0.000007 -0.000001 -31.203300 -63.526700 -67.170000 24.328600 0.000019 0.000005 6.844720 8.759060 -38.247200 22.291600 -0.000001 0.000005 23.813200 5.396370 -2.819700 12.994500 -0.242716 -4.980390 93.249200 -9.539090 -71.090300 -5.348130 -0.000001 -0.000004 -14.783100 -62.661900 -44.144500 -24.328900 0.000322 -0.000009 -9.013810 -9.270210 -44.554200 -22.291500 -0.000108 -0.000004 25.670300 5.605570 -11.684500 -2.192480 -6.469440 -0.000000 -173.959000 -14.030900 -1.847950 39.081100 -0.000007 -0.000012 -0.127728 0.271398 25.203100 40.985400 -0.000006 -0.000013 -0.119751 9.702740 -68.615300 11.754300 -0.000000 0.000003 -0.000121 -0.001211 -16.623800 -2.192510 6.469440 -0.000001 175.659000 24.754000 179.150000 -39.081100 -0.002282 -0.040193 0.010933 -0.015931 25.567200 -40.985400 0.000008 0.000006 6.880110 15.349600 -70.307500 -11.754300 -0.000006 -0.000006 -0.014386 -0.032901 -17.275200
